<svg width="25" height="25" viewBox="0 0 25 25" fill="none" xmlns="http://www.w3.org/2000/svg">
<path d="M22.3055 10.5415L21.5 10.5415L21.5 10.5L12.5 10.5L12.5 14.5L18.1515 14.5C17.327 16.8285 15.1115 18.5 12.5 18.5C9.1865 18.5 6.5 15.8135 6.5 12.5C6.5 9.1865 9.1865 6.5 12.5 6.5C14.0295 6.5 15.421 7.077 16.4805 8.0195L19.309 5.191C17.523 3.5265 15.134 2.5 12.5 2.5C6.9775 2.5 2.5 6.9775 2.5 12.5C2.5 18.0225 6.9775 22.5 12.5 22.5C18.0225 22.5 22.5 18.0225 22.5 12.5C22.5 11.8295 22.431 11.175 22.3055 10.5415Z" fill="#FBC02D"/>
<path d="M3.65308 7.8455L6.93858 10.255C7.82758 8.054 9.98058 6.5 12.5001 6.5C14.0296 6.5 15.4211 7.077 16.4806 8.0195L19.3091 5.191C17.5231 3.5265 15.1341 2.5 12.5001 2.5C8.65908 2.5 5.32808 4.6685 3.65308 7.8455Z" fill="#E53935"/>
<path d="M12.4999 22.5C15.0829 22.5 17.4299 21.5115 19.2044 19.904L16.1094 17.285C15.1054 18.0455 13.8574 18.5 12.4999 18.5C9.89891 18.5 7.69041 16.8415 6.85841 14.527L3.59741 17.0395C5.25241 20.278 8.61341 22.5 12.4999 22.5Z" fill="#4CAF50"/>
<path d="M22.3055 10.5415L22.2975 10.5L21.5 10.5L12.5 10.5L12.5 14.5L18.1515 14.5C17.7555 15.6185 17.036 16.583 16.108 17.2855C16.1085 17.285 16.109 17.285 16.1095 17.2845L19.2045 19.9035C18.9855 20.1025 22.5 17.5 22.5 12.5C22.5 11.8295 22.431 11.175 22.3055 10.5415Z" fill="#1565C0"/>
</svg>
